<svg id="Layer_1" data-name="Layer 1" xmlns="http://www.w3.org/2000/svg" xmlns:xlink="http://www.w3.org/1999/xlink" viewBox="0 0 1920 1080"><defs><style>.cls-1{fill:url(#linear-gradient);}.cls-2{fill:url(#linear-gradient-2);}.cls-3{fill:url(#linear-gradient-3);}.cls-4{fill:url(#linear-gradient-4);}.cls-5{fill:url(#linear-gradient-5);}.cls-6{fill:url(#linear-gradient-6);}.cls-7{fill:url(#linear-gradient-7);}.cls-8{fill:url(#linear-gradient-8);}.cls-9{fill:url(#linear-gradient-9);}.cls-10{fill:url(#linear-gradient-10);}.cls-11{fill:url(#linear-gradient-11);}.cls-12{fill:url(#linear-gradient-12);}.cls-13{fill:url(#linear-gradient-13);}.cls-14{fill:url(#linear-gradient-14);}.cls-15{fill:url(#linear-gradient-15);}.cls-16{fill:url(#linear-gradient-16);}.cls-17{fill:url(#linear-gradient-17);}.cls-18{fill:url(#linear-gradient-18);}.cls-19{fill:url(#linear-gradient-19);}</style><linearGradient id="linear-gradient" x1="-41.26" y1="540.71" x2="159.67" y2="788.52" gradientUnits="userSpaceOnUse"><stop offset="0" stop-color="#46ffd2"/><stop offset="1" stop-color="#06a9f3"/></linearGradient><linearGradient id="linear-gradient-2" x1="160.1" y1="667.79" x2="160.1" y2="1072.37" gradientUnits="userSpaceOnUse"><stop offset="0" stop-color="#e5f0fd"/><stop offset="1" stop-color="#04f2c8"/></linearGradient><linearGradient id="linear-gradient-3" x1="274.79" y1="733.28" x2="573.96" y2="1117.28" gradientUnits="userSpaceOnUse"><stop offset="0" stop-color="#03ffac"/><stop offset="1" stop-color="#04bacc"/></linearGradient><linearGradient id="linear-gradient-4" x1="799.97" y1="691.23" x2="799.97" y2="1084.2" gradientUnits="userSpaceOnUse"><stop offset="0" stop-color="#07e8ff"/><stop offset="1" stop-color="#22e2f6"/></linearGradient><linearGradient id="linear-gradient-5" x1="1564.02" y1="663.07" x2="1413.32" y2="1068.28" gradientUnits="userSpaceOnUse"><stop offset="0" stop-color="#04ffc9"/><stop offset="1" stop-color="#04ffca"/></linearGradient><linearGradient id="linear-gradient-6" x1="639.93" y1="416.63" x2="639.93" y2="903.87" gradientUnits="userSpaceOnUse"><stop offset="0" stop-color="#06f4e2"/><stop offset="0.04" stop-color="#06f4e2"/><stop offset="1" stop-color="#06f4e2"/></linearGradient><linearGradient id="linear-gradient-7" x1="948.09" y1="710.11" x2="1199.26" y2="1128.72" gradientUnits="userSpaceOnUse"><stop offset="0" stop-color="#576ef0"/><stop offset="1" stop-color="#04bbcc"/></linearGradient><linearGradient id="linear-gradient-8" x1="1092.75" y1="581.98" x2="1457.77" y2="742.72" gradientUnits="userSpaceOnUse"><stop offset="0" stop-color="#a6e3f6"/><stop offset="1" stop-color="#02d397"/></linearGradient><linearGradient id="linear-gradient-9" x1="1759.96" y1="406.58" x2="1759.96" y2="922.4" gradientUnits="userSpaceOnUse"><stop offset="0" stop-color="#1c80eb"/><stop offset="1" stop-color="#07e5ff"/></linearGradient><linearGradient id="linear-gradient-10" x1="1579.3" y1="701.46" x2="1804.78" y2="1069.75" gradientUnits="userSpaceOnUse"><stop offset="0" stop-color="#03ffac"/><stop offset="1" stop-color="#05e6d8"/></linearGradient><linearGradient id="linear-gradient-11" x1="319.93" y1="4.72" x2="319.93" y2="225.77" gradientUnits="userSpaceOnUse"><stop offset="0" stop-color="#04ffc8"/><stop offset="1" stop-color="#04ffcd"/></linearGradient><linearGradient id="linear-gradient-12" x1="18.22" y1="34.97" x2="317.38" y2="662.32" gradientUnits="userSpaceOnUse"><stop offset="0" stop-color="#03ffac"/><stop offset="1" stop-color="#05a5d6"/></linearGradient><linearGradient id="linear-gradient-13" x1="323.1" y1="249.69" x2="641.24" y2="417.13" gradientUnits="userSpaceOnUse"><stop offset="0" stop-color="#04fac4"/><stop offset="1" stop-color="#07ebfa"/></linearGradient><linearGradient id="linear-gradient-14" x1="647.84" y1="13.26" x2="959.28" y2="666.28" gradientUnits="userSpaceOnUse"><stop offset="0" stop-color="#635ff7"/><stop offset="1" stop-color="#03ffac"/></linearGradient><linearGradient id="linear-gradient-15" x1="644.68" y1="124.5" x2="1277.69" y2="124.5" gradientUnits="userSpaceOnUse"><stop offset="0" stop-color="#03c5a1"/><stop offset="1" stop-color="#576ded"/></linearGradient><linearGradient id="linear-gradient-16" x1="1272.76" y1="3.79" x2="981.41" y2="630.02" gradientUnits="userSpaceOnUse"><stop offset="0" stop-color="#03ffac"/><stop offset="1" stop-color="#9de3f5"/></linearGradient><linearGradient id="linear-gradient-17" x1="1917.07" y1="1.29" x2="1602.28" y2="664.36" gradientUnits="userSpaceOnUse"><stop offset="0" stop-color="#07e9ff"/><stop offset="1" stop-color="#04e3c7"/></linearGradient><linearGradient id="linear-gradient-18" x1="1317.22" y1="50.1" x2="1583.77" y2="662.7" gradientUnits="userSpaceOnUse"><stop offset="0.3" stop-color="#03ffac"/><stop offset="1" stop-color="#4283e6"/></linearGradient><linearGradient id="linear-gradient-19" x1="1264.21" y1="124.5" x2="1904.21" y2="124.5" gradientUnits="userSpaceOnUse"><stop offset="0" stop-color="#92f9ff"/><stop offset="1" stop-color="#05f8d3"/></linearGradient></defs><polygon class="cls-1" points="319.94 664.43 0.13 913.44 0 913.34 0 415.53 0.07 415.48 0.13 415.43 319.94 664.43"/><polygon class="cls-2" points="319.94 664.43 320.06 1080 0.13 1080 0.13 913.44 319.94 664.43"/><polygon class="cls-3" points="640 913.44 640 1080 320.06 1080 319.94 664.43 640 913.44"/><polygon class="cls-4" points="959.92 664.43 959.94 1079.87 959.77 1080 640 1080 640 913.44 959.92 664.43"/><polygon class="cls-5" points="1599.92 664.44 1599.92 1079.87 1599.75 1080 1279.99 1080 1279.99 913.44 1599.92 664.44"/><polygon class="cls-6" points="959.92 664.43 640 913.44 319.94 664.43 639.99 415.43 959.92 664.43"/><polygon class="cls-7" points="1279.99 913.44 1279.99 1080 960.22 1080 960.05 1079.87 959.92 664.43 1279.99 913.44"/><polygon class="cls-8" points="1599.92 664.44 1279.99 913.44 959.92 664.43 1280 415.43 1599.92 664.44"/><polygon class="cls-9" points="1920 415.43 1920 913.44 1599.92 664.44 1920 415.43"/><polygon class="cls-10" points="1920 913.44 1920 1080 1600.23 1080 1600.06 1079.87 1599.92 664.44 1920 913.44"/><polygon class="cls-11" points="639.87 0 319.94 249 0 0 639.87 0"/><polygon class="cls-12" points="0 415.43 0 0 319.94 249 319.94 664.43 0 415.43"/><polygon class="cls-13" points="639.99 415.43 639.87 0 319.94 249 319.94 664.43 639.99 415.43"/><polygon class="cls-14" points="639.99 415.43 639.87 0 959.92 249 959.92 664.43 639.99 415.43"/><polygon class="cls-15" points="1280 0 959.92 249 639.87 0 1280 0"/><polygon class="cls-16" points="1280 415.43 1280 0 959.92 249 959.92 664.43 1280 415.43"/><polygon class="cls-17" points="1920 415.43 1920 0 1599.94 249 1599.92 664.44 1920 415.43"/><polygon class="cls-18" points="1280 415.43 1280 0 1599.94 249 1599.94 664.43 1280 415.43"/><polygon class="cls-19" points="1920 0 1599.94 249 1280 0 1920 0"/></svg>